<?xml version="1.0" standalone="no"?>
<!DOCTYPE svg PUBLIC "-//W3C//DTD SVG 20010904//EN"
 "http://www.w3.org/TR/2001/REC-SVG-20010904/DTD/svg10.dtd">
<svg version="1.0" xmlns="http://www.w3.org/2000/svg"
 width="512.000000pt" height="512.000000pt" viewBox="0 0 512.000000 512.000000"
 preserveAspectRatio="xMidYMid meet">

<g transform="translate(0.000000,512.000000) scale(0.100000,-0.100000)"
fill="#000000" stroke="none">
<path d="M2290 5105 c-604 -66 -1158 -339 -1575 -777 -369 -387 -589 -835
-682 -1388 -26 -154 -26 -600 1 -755 76 -448 231 -816 490 -1163 98 -131 358
-393 486 -489 347 -261 711 -418 1150 -495 109 -19 161 -22 405 -22 244 0 296
3 405 22 558 99 1007 329 1396 717 336 335 552 710 674 1169 90 340 104 758
36 1116 -159 848 -748 1566 -1554 1894 -379 155 -820 216 -1232 171z m1275
-1167 c11 0 39 3 62 7 27 5 53 3 72 -5 23 -9 38 -9 66 0 31 10 41 9 76 -9 22
-12 58 -21 83 -21 30 0 55 -8 80 -25 20 -14 49 -25 64 -25 36 0 86 -32 108
-69 10 -17 27 -34 39 -37 33 -10 85 -66 95 -104 5 -19 10 -55 10 -80 0 -25 4
-60 9 -78 15 -52 -11 -124 -58 -161 -21 -17 -42 -42 -45 -55 -8 -32 -71 -86
-100 -86 -16 0 -34 -13 -53 -36 -22 -28 -39 -38 -77 -45 -26 -5 -61 -20 -78
-34 -22 -18 -41 -25 -73 -25 -26 0 -62 -9 -85 -21 -32 -17 -50 -20 -85 -15
-27 5 -53 3 -66 -5 -12 -6 -40 -10 -63 -9 -140 7 -208 9 -258 9 -33 0 -71 7
-88 16 -20 10 -42 13 -68 9 -29 -4 -47 -1 -73 15 -21 13 -51 21 -77 21 -29 0
-53 7 -69 20 -36 28 -47 25 -93 -19 -29 -28 -40 -47 -40 -69 0 -16 -7 -35 -15
-42 -11 -9 -14 -22 -10 -41 4 -18 0 -37 -11 -53 -14 -22 -14 -31 -4 -56 10
-24 10 -36 0 -60 -10 -25 -10 -34 4 -55 14 -21 15 -31 6 -58 -9 -25 -9 -39 3
-66 11 -26 12 -42 4 -67 -9 -28 -7 -37 8 -54 14 -15 16 -29 12 -63 -4 -31 -2
-50 10 -66 11 -16 13 -34 9 -62 -4 -27 -1 -49 9 -69 11 -21 14 -42 9 -66 -5
-25 -1 -45 12 -69 16 -30 17 -39 5 -70 -11 -32 -11 -39 4 -55 14 -15 16 -30
11 -72 -4 -36 -1 -61 8 -77 12 -21 12 -31 0 -64 -12 -33 -12 -41 2 -63 11 -16
14 -34 10 -56 -9 -40 -9 -62 0 -109 3 -21 1 -46 -6 -58 -8 -17 -8 -30 1 -56
11 -30 10 -40 -4 -71 -14 -29 -15 -42 -6 -73 9 -31 8 -43 -5 -69 -11 -22 -14
-44 -10 -76 5 -36 3 -51 -11 -66 -13 -14 -15 -28 -10 -58 5 -30 1 -49 -14 -78
-12 -21 -21 -46 -21 -56 0 -24 -45 -73 -80 -88 -51 -21 -145 -7 -189 27 -61
49 -73 84 -65 188 3 50 11 96 17 103 6 7 12 36 13 65 2 29 5 79 6 112 2 33 9
69 15 80 9 15 8 26 -3 47 -13 25 -13 32 2 59 13 26 14 36 3 61 -10 24 -10 37
0 64 9 24 9 39 1 53 -6 11 -10 44 -10 73 0 106 -6 174 -16 198 -7 15 -8 36 -3
54 6 20 4 37 -7 59 -11 20 -14 43 -10 69 5 27 1 46 -10 64 -14 20 -15 33 -8
62 8 30 6 43 -10 71 -16 27 -17 39 -9 62 9 23 7 36 -8 66 -15 31 -17 45 -9 73
8 26 6 39 -6 58 -11 17 -14 36 -10 61 9 54 9 53 -5 88 -11 26 -11 39 -1 67 10
26 10 41 3 55 -15 27 -14 71 3 102 11 21 11 36 3 67 -9 35 -8 44 16 85 16 27
27 61 27 82 0 27 8 47 31 72 16 19 28 40 26 46 -2 7 -24 14 -50 17 -27 4 -56
15 -69 27 -13 11 -43 23 -66 26 -24 3 -54 14 -65 25 -12 11 -41 23 -63 27 -25
4 -51 16 -65 31 -15 16 -33 24 -55 24 -20 0 -44 10 -62 25 -19 16 -42 25 -64
25 -22 0 -42 7 -53 20 -12 14 -31 20 -59 20 -23 0 -50 7 -61 15 -12 10 -30 13
-52 9 -19 -4 -46 -1 -63 6 -24 10 -36 10 -59 0 -23 -9 -34 -9 -57 3 -26 13
-32 12 -58 -3 -22 -15 -34 -16 -58 -8 -23 8 -33 7 -47 -6 -11 -10 -35 -16 -63
-16 -32 0 -50 -6 -63 -20 -11 -13 -31 -20 -53 -20 -22 0 -45 -9 -64 -25 -16
-14 -40 -25 -52 -25 -13 0 -31 -12 -45 -31 -47 -64 -127 -87 -190 -55 -43 23
-99 91 -111 136 -14 53 -5 82 56 172 48 72 60 82 110 91 17 3 45 20 62 36 24
25 39 31 72 31 30 0 48 7 68 25 21 20 37 25 75 25 34 0 58 7 79 21 23 17 39
20 79 17 36 -4 60 0 88 14 36 18 42 18 75 4 33 -14 40 -14 72 1 30 15 39 15
67 4 18 -8 64 -14 104 -15 43 -1 77 -6 84 -13 7 -7 36 -13 65 -13 38 0 59 -6
80 -22 18 -15 44 -23 72 -24 33 -1 51 -9 73 -30 23 -22 37 -28 65 -25 28 2 42
-3 63 -23 14 -13 46 -29 69 -35 24 -5 54 -19 66 -30 14 -13 36 -21 57 -21 25
0 43 -8 59 -25 18 -19 34 -25 65 -25 31 0 47 -6 65 -25 42 -44 114 -26 160 40
19 28 42 47 65 55 19 6 44 25 55 40 13 18 37 34 63 42 23 7 53 24 67 39 17 17
42 29 70 34 25 4 58 18 73 31 22 18 41 24 77 24 27 0 52 5 56 11 13 21 66 37
96 28 22 -6 37 -3 61 12 22 14 41 18 62 14 17 -3 39 -6 50 -7z"/>
<path d="M3483 3910 c-30 -12 -29 -21 8 -56 18 -16 74 -80 126 -141 92 -111
125 -134 139 -98 8 20 -36 94 -107 180 -92 113 -121 133 -166 115z"/>
<path d="M3605 3910 c-4 -6 19 -41 50 -77 31 -37 80 -106 108 -155 50 -85 78
-111 99 -90 14 14 -6 69 -61 170 -63 115 -107 162 -154 162 -20 0 -39 -5 -42
-10z"/>
<path d="M3756 3902 c-2 -4 16 -41 41 -82 25 -41 59 -108 75 -150 46 -118 47
-120 63 -120 24 0 29 26 17 97 -12 69 -57 177 -98 230 -20 26 -32 33 -59 33
-19 0 -36 -3 -39 -8z"/>
<path d="M3326 3877 c-17 -12 -14 -17 35 -57 30 -24 95 -83 145 -132 92 -88
112 -100 133 -74 13 15 -13 55 -95 145 -103 115 -172 152 -218 118z"/>
<path d="M3912 3881 c-11 -7 -8 -23 18 -80 27 -61 41 -115 66 -248 7 -37 31
-26 50 22 16 43 16 49 -1 127 -26 121 -47 163 -86 177 -17 6 -32 11 -33 11 -1
0 -7 -4 -14 -9z"/>
<path d="M1566 3867 c-16 -12 -13 -20 49 -96 36 -46 84 -115 107 -153 43 -73
71 -100 94 -91 22 8 17 38 -17 106 -72 143 -157 247 -201 247 -8 0 -22 -6 -32
-13z"/>
<path d="M1410 3860 c-16 -10 -15 -11 94 -127 33 -35 75 -84 93 -110 40 -57
59 -73 89 -73 51 0 37 34 -72 176 -101 131 -154 166 -204 134z"/>
<path d="M1716 3851 c-3 -5 10 -35 30 -67 19 -33 60 -109 90 -171 37 -77 60
-114 75 -118 37 -12 45 9 25 72 -25 78 -103 236 -132 268 -23 25 -77 35 -88
16z"/>
<path d="M1266 3837 c-16 -12 -8 -22 96 -114 62 -56 126 -115 142 -132 46 -48
106 -38 72 13 -34 53 -139 166 -189 204 -56 43 -90 52 -121 29z"/>
<path d="M3180 3835 c-16 -20 -15 -22 92 -89 48 -30 109 -72 135 -94 60 -49
87 -64 107 -56 34 13 15 41 -84 129 -100 88 -159 125 -201 125 -21 0 -42 -7
-49 -15z"/>
<path d="M1860 3824 c0 -3 19 -49 41 -102 23 -53 52 -128 65 -166 33 -95 48
-116 84 -116 17 0 30 5 30 10 0 21 -73 237 -101 298 -20 44 -35 65 -54 72 -29
11 -65 13 -65 4z"/>
<path d="M4050 3818 c0 -7 7 -38 15 -68 18 -67 19 -142 3 -187 -6 -18 -9 -35
-5 -39 14 -15 57 9 79 43 29 49 32 172 4 215 -23 36 -96 63 -96 36z"/>
<path d="M1129 3806 c-39 -19 -33 -35 31 -73 34 -21 105 -71 158 -111 69 -53
103 -72 121 -70 13 2 26 9 28 15 11 31 -215 222 -285 242 -19 6 -38 5 -53 -3z"/>
<path d="M3070 3787 c-45 -23 -35 -40 44 -75 41 -19 110 -56 153 -83 94 -60
119 -68 141 -45 16 16 15 19 -18 48 -44 37 -152 109 -205 135 -57 29 -87 34
-115 20z"/>
<path d="M2010 3769 c0 -28 116 -355 132 -371 24 -24 58 -24 58 0 0 50 -92
336 -117 364 -17 19 -73 25 -73 7z"/>
<path d="M983 3750 c-42 -17 -25 -38 67 -84 49 -25 121 -65 160 -90 69 -45
101 -54 128 -38 24 16 0 42 -97 106 -167 111 -206 127 -258 106z"/>
<path d="M2148 3725 c-6 -6 38 -168 78 -288 26 -77 50 -107 87 -107 17 0 18 5
12 37 -4 21 -13 56 -20 78 -7 22 -27 85 -44 141 -17 55 -40 110 -51 122 -19
21 -50 29 -62 17z"/>
<path d="M2944 3720 c-35 -14 -43 -60 -10 -60 25 0 139 -42 233 -86 94 -44
125 -48 137 -19 10 26 -137 112 -262 154 -68 23 -68 23 -98 11z"/>
<path d="M4196 3658 c-13 -115 -49 -152 -156 -162 -83 -9 -88 -24 -14 -43 65
-17 97 -16 142 2 105 44 146 154 87 232 -38 49 -51 43 -59 -29z"/>
<path d="M840 3672 c-32 -26 -24 -34 65 -65 39 -13 117 -46 174 -72 88 -40
107 -46 127 -36 13 6 24 15 24 20 0 29 -251 160 -322 168 -34 4 -49 0 -68 -15z"/>
<path d="M2275 3670 c-13 -21 96 -357 123 -377 14 -12 72 -19 72 -9 0 5 -85
253 -109 317 -15 38 -29 60 -47 67 -30 15 -31 15 -39 2z"/>
<path d="M2810 3615 c-14 -15 -20 -29 -14 -34 5 -5 51 -16 103 -25 51 -9 126
-28 166 -42 81 -28 128 -29 133 -2 4 22 -62 56 -188 97 -116 39 -168 40 -200
6z"/>
<path d="M2400 3599 c0 -32 100 -321 119 -342 23 -28 49 -39 66 -30 12 7 5 36
-41 173 -31 91 -65 177 -76 193 -24 34 -68 38 -68 6z"/>
<path d="M782 3587 c-12 -12 -25 -34 -31 -48 l-10 -26 72 -5 c46 -3 107 -17
169 -39 l97 -34 22 21 21 22 -24 16 c-31 20 -175 79 -245 99 -49 15 -52 15
-71 -6z"/>
<path d="M3642 3582 c-20 -13 -29 -14 -54 -4 -24 9 -36 8 -59 -3 -17 -9 -40
-12 -59 -9 -22 5 -36 2 -50 -11 -13 -11 -29 -16 -47 -12 -20 4 -35 -2 -57 -19
-16 -14 -39 -24 -51 -22 -12 1 -35 -9 -54 -25 -18 -15 -43 -27 -57 -27 -19 0
-24 -5 -24 -25 0 -23 3 -25 49 -25 33 0 55 -6 66 -16 14 -14 22 -15 52 -6 29
9 42 8 65 -4 23 -12 35 -13 61 -3 27 9 38 9 63 -4 26 -13 32 -13 49 0 14 10
33 12 62 8 30 -4 49 -2 67 10 17 11 35 15 54 11 21 -5 33 -2 47 14 11 12 31
20 51 20 23 0 37 6 44 19 5 11 26 25 45 31 19 6 35 15 35 18 0 4 -15 19 -34
34 -22 18 -41 25 -55 21 -11 -3 -32 2 -45 10 -16 11 -36 14 -59 10 -22 -3 -43
0 -58 10 -22 14 -26 14 -47 -1z"/>
<path d="M2530 3548 c0 -35 96 -308 118 -337 10 -14 31 -27 45 -29 23 -3 27 1
27 21 0 14 -20 78 -44 142 -25 65 -48 130 -51 145 -14 62 -95 111 -95 58z"/>
<path d="M2742 3529 c3 -8 24 -16 51 -19 28 -4 55 -14 70 -28 17 -16 36 -22
69 -22 30 0 50 -6 59 -16 16 -19 97 -14 110 7 17 29 -131 74 -279 86 -70 5
-84 4 -80 -8z"/>
<path d="M2655 3511 c-5 -10 85 -271 112 -324 17 -34 78 -66 94 -50 9 9 -2 43
-41 135 -106 249 -105 248 -142 248 -9 0 -19 -4 -23 -9z"/>
<path d="M4264 3479 c-55 -60 -168 -76 -280 -40 -53 18 -61 19 -82 5 -29 -19
-25 -33 19 -55 57 -30 149 -49 232 -49 76 0 80 1 113 34 29 29 34 41 34 80 0
51 -8 56 -36 25z"/>
<path d="M754 3475 c-3 -8 2 -28 12 -45 l19 -31 107 -2 c85 -2 109 1 113 12 3
8 4 15 3 16 -15 13 -75 36 -125 49 -77 20 -122 20 -129 1z"/>
<path d="M2780 3455 c0 -21 41 -125 93 -236 52 -112 87 -145 126 -120 10 7 -1
40 -54 157 -89 198 -99 214 -136 214 -19 0 -29 -5 -29 -15z"/>
<path d="M2914 3425 c-12 -31 120 -311 162 -344 29 -22 59 -27 69 -11 6 10
-147 325 -169 346 -21 22 -56 27 -62 9z"/>
<path d="M3040 3379 c0 -29 128 -274 162 -311 27 -29 80 -39 93 -18 4 6 -20
52 -52 103 -33 51 -74 119 -92 152 -43 78 -59 95 -88 95 -17 0 -23 -6 -23 -21z"/>
<path d="M3784 3386 c-19 -15 -19 -15 1 -30 68 -54 256 -136 311 -136 14 0 38
7 54 15 29 15 57 52 46 62 -3 3 -40 9 -83 13 -80 9 -139 25 -232 66 -63 28
-71 29 -97 10z"/>
<path d="M820 3372 c0 -27 95 -41 133 -20 l22 12 -25 7 c-36 10 -130 11 -130
1z"/>
<path d="M3165 3360 c-11 -19 117 -236 180 -304 25 -27 87 -37 100 -16 4 6 -9
30 -27 53 -19 23 -63 85 -98 137 -35 52 -72 105 -83 118 -21 22 -61 30 -72 12z"/>
<path d="M3674 3356 c-19 -14 -19 -15 5 -40 67 -71 252 -175 312 -176 26 0 73
35 65 49 -3 5 -34 18 -68 31 -63 22 -180 82 -208 105 -14 12 -75 45 -83 45 -2
0 -12 -6 -23 -14z"/>
<path d="M3295 3341 c-8 -13 6 -39 63 -121 110 -157 168 -209 216 -190 14 5
26 12 26 15 0 3 -36 47 -79 98 -44 51 -100 117 -124 147 -42 54 -86 76 -102
51z"/>
<path d="M3433 3343 c-7 -2 -13 -11 -13 -19 0 -22 67 -108 151 -196 57 -58 83
-78 110 -83 37 -7 79 7 79 25 0 5 -31 34 -68 64 -38 29 -104 90 -148 135 -78
79 -86 85 -111 74z"/>
<path d="M3546 3337 c-17 -13 -13 -19 50 -83 83 -84 190 -162 233 -170 34 -7
81 11 81 31 0 7 -23 24 -51 40 -47 25 -81 49 -222 158 -53 41 -64 43 -91 24z"/>
<path d="M2530 3188 c-48 -13 -70 -36 -70 -70 0 -33 6 -34 79 -9 31 11 68 22
84 26 32 6 34 18 7 45 -22 22 -46 24 -100 8z"/>
<path d="M2705 3123 c-95 -21 -184 -47 -215 -63 -65 -33 -98 -92 -67 -118 9
-8 26 -2 62 21 49 30 224 97 256 97 9 0 27 8 39 18 21 17 21 19 5 35 -16 17
-39 19 -80 10z"/>
<path d="M2660 3014 c-62 -17 -188 -85 -231 -126 -30 -27 -38 -68 -20 -97 7
-11 26 -1 87 47 44 33 113 77 155 96 83 39 104 57 95 81 -7 18 -15 18 -86 -1z"/>
<path d="M2663 2915 c-47 -20 -140 -86 -205 -145 -43 -38 -58 -58 -58 -78 0
-60 14 -58 101 15 46 38 111 89 144 113 69 50 75 57 75 88 0 25 -12 27 -57 7z"/>
<path d="M2649 2791 c-67 -45 -212 -173 -228 -202 -15 -27 -9 -79 10 -79 6 0
56 42 111 93 56 50 119 108 141 128 34 30 39 40 33 62 -8 34 -13 34 -67 -2z"/>
<path d="M2634 2652 c-33 -27 -92 -83 -131 -125 -63 -64 -73 -80 -73 -110 0
-20 5 -39 11 -43 7 -4 66 48 146 129 116 116 134 139 131 163 -2 15 -8 29 -14
31 -7 2 -38 -18 -70 -45z"/>
<path d="M2660 2537 c-25 -23 -82 -81 -128 -130 -83 -89 -97 -119 -72 -157 8
-12 34 10 135 113 68 71 127 138 130 149 8 22 -1 68 -13 68 -4 0 -27 -20 -52
-43z"/>
<path d="M2646 2378 c-157 -160 -176 -184 -176 -222 0 -24 5 -36 14 -36 15 0
232 216 254 253 16 26 9 77 -10 77 -6 0 -43 -33 -82 -72z"/>
<path d="M2621 2204 c-127 -132 -148 -165 -132 -201 6 -14 16 -23 21 -21 17 6
249 259 255 278 6 20 -10 60 -24 60 -5 0 -59 -52 -120 -116z"/>
<path d="M2626 2058 c-129 -135 -147 -168 -113 -197 11 -8 38 14 129 107 63
64 122 129 132 143 19 30 13 79 -9 79 -7 0 -70 -60 -139 -132z"/>
<path d="M2645 1929 c-109 -107 -135 -138 -135 -160 0 -32 13 -44 36 -31 9 5
70 62 135 127 104 103 119 123 119 151 0 18 -5 36 -10 39 -6 4 -71 -53 -145
-126z"/>
<path d="M2651 1794 c-107 -103 -131 -132 -131 -155 0 -64 32 -45 197 116 92
89 104 105 101 130 -6 55 -31 41 -167 -91z"/>
<path d="M2755 1753 c-23 -21 -80 -74 -129 -118 -48 -44 -92 -88 -98 -98 -11
-21 -2 -57 15 -57 15 0 166 121 236 189 45 44 52 56 49 83 -4 45 -25 45 -73 1z"/>
<path d="M2755 1609 c-32 -28 -96 -80 -142 -116 -85 -66 -106 -100 -83 -128
11 -13 22 -9 79 32 96 69 218 171 225 189 9 24 7 38 -6 57 -12 15 -19 12 -73
-34z"/>
<path d="M2758 1476 c-31 -25 -95 -72 -142 -106 -84 -60 -106 -83 -106 -115 0
-36 34 -26 130 39 120 81 200 152 200 176 0 23 -10 50 -19 50 -3 0 -31 -20
-63 -44z"/>
<path d="M2750 1339 c-30 -23 -99 -70 -152 -106 -84 -56 -98 -69 -98 -92 0
-15 3 -30 6 -34 15 -15 254 134 308 191 22 24 27 37 22 56 -9 35 -21 32 -86
-15z"/>
<path d="M2744 1204 c-32 -20 -97 -59 -144 -87 -109 -64 -120 -74 -120 -109 0
-26 3 -29 23 -23 68 21 300 163 317 195 11 21 5 60 -9 60 -4 0 -34 -16 -67
-36z"/>
<path d="M2684 1048 c-60 -33 -133 -71 -161 -84 -50 -22 -53 -26 -53 -60 0
-19 5 -44 11 -55 10 -20 11 -19 30 5 11 14 65 49 119 76 140 73 180 103 180
139 0 17 -4 32 -8 35 -5 3 -58 -22 -118 -56z"/>
<path d="M2654 915 c-150 -73 -179 -119 -90 -144 26 -7 34 -4 51 15 11 13 49
41 85 62 66 39 95 77 84 106 -3 9 -9 16 -13 16 -3 0 -56 -25 -117 -55z"/>
<path d="M2699 822 c-24 -16 -51 -37 -59 -47 -14 -17 -13 -18 23 -12 45 7 63
20 83 59 18 35 9 35 -47 0z"/>
</g>
</svg>
